<svg xmlns="http://www.w3.org/2000/svg" viewBox="0 0 1536 730" preserveAspectRatio="xMidYMid" width="1536" height="730" xmlns:xlink="http://www.w3.org/1999/xlink" style="shape-rendering:auto;display:block;background-position-x:0%;background-position-y:0%;background-size:auto;background-origin:padding-box;background-clip:border-box;background:scroll rgb(28, 28, 28) none  repeat;width:1536px;height:730px;;animation:none"><g><defs><filter height="158" width="12" y="-6" x="-6" filterUnits="userSpaceOnUse" id="f-jwk0tkw0j4"><feGaussianBlur result="blur1" stdDeviation="5"></feGaussianBlur>

    
<feMorphology result="dilate" in="SourceGraphic" radius="1.25" operator="dilate"></feMorphology>

    
<feComponentTransfer result="dark" in="dilate"><feFuncR slope="0.33" type="linear"></feFuncR>

    
<feFuncG slope="0.33" type="linear"></feFuncG>

    
<feFuncB slope="0.33" type="linear"></feFuncB></feComponentTransfer>

    
<feGaussianBlur result="blur2" in="dark" stdDeviation="2.50"></feGaussianBlur>

    
<feMerge><feMergeNode in="blur1"></feMergeNode>

      
<feMergeNode in="blur2"></feMergeNode>

      
<feMergeNode in="SourceGraphic"></feMergeNode></feMerge></filter></defs>
<path stroke-width="1" stroke="#3a454a" d="M296.73 0L296.73 730" style="stroke:rgb(58, 69, 74);;animation:none"></path>


<path filter="url(#f-jwk0tkw0j4)" fill="#dae4bf" d="M0 0L-1 146 A1 1 0 0 0 1 146 Z" transform="matrix(1,0,0,1,296.7300109863281,106)" style="fill:rgb(218, 228, 191);transform:matrix(1, 0, 0, 1, 296.73, 106);;animation:none"></path>
<path stroke-width="1" stroke="#3a454a" d="M401.45 0L401.45 730" style="stroke:rgb(58, 69, 74);;animation:none"></path>


<path filter="url(#f-jwk0tkw0j4)" fill="#fac090" d="M0 0L-1 146 A1 1 0 0 0 1 146 Z" transform="matrix(1,0,0,1,401.45001220703125,650)" style="fill:rgb(250, 192, 144);transform:matrix(1, 0, 0, 1, 401.45, 650);;animation:none"></path>
<path stroke-width="1" stroke="#3a454a" d="M506.18 0L506.18 730" style="stroke:rgb(58, 69, 74);;animation:none"></path>


<path filter="url(#f-jwk0tkw0j4)" fill="#c0f6d2" d="M0 0L-1 146 A1 1 0 0 0 1 146 Z" transform="matrix(1,0,0,1,506.17999267578125,471.33331298828125)" style="fill:rgb(192, 246, 210);transform:matrix(1, 0, 0, 1, 506.18, 471.333);;animation:none"></path>
<path stroke-width="1" stroke="#3a454a" d="M610.91 0L610.91 730" style="stroke:rgb(58, 69, 74);;animation:none"></path>


<path filter="url(#f-jwk0tkw0j4)" fill="#c0f6d2" d="M0 0L-1 146 A1 1 0 0 0 1 146 Z" transform="matrix(1,0,0,1,610.9099731445312,258)" style="fill:rgb(192, 246, 210);transform:matrix(1, 0, 0, 1, 610.91, 258);;animation:none"></path>
<path stroke-width="1" stroke="#3a454a" d="M715.64 0L715.64 730" style="stroke:rgb(58, 69, 74);;animation:none"></path>


<path filter="url(#f-jwk0tkw0j4)" fill="#fac090" d="M0 0L-1 146 A1 1 0 0 0 1 146 Z" transform="matrix(1,0,0,1,715.6400146484375,58)" style="fill:rgb(250, 192, 144);transform:matrix(1, 0, 0, 1, 715.64, 58);;animation:none"></path>
<path stroke-width="1" stroke="#3a454a" d="M820.36 0L820.36 730" style="stroke:rgb(58, 69, 74);;animation:none"></path>


<path filter="url(#f-jwk0tkw0j4)" fill="#ffffcb" d="M0 0L-1 146 A1 1 0 0 0 1 146 Z" transform="matrix(1,0,0,1,820.3599853515625,-16.666671752929688)" style="fill:rgb(255, 255, 203);transform:matrix(1, 0, 0, 1, 820.36, -16.6667);;animation:none"></path>
<path stroke-width="1" stroke="#3a454a" d="M925.09 0L925.09 730" style="stroke:rgb(58, 69, 74);;animation:none"></path>


<path filter="url(#f-jwk0tkw0j4)" fill="#fac090" d="M0 0L-1 146 A1 1 0 0 0 1 146 Z" transform="matrix(1,0,0,1,925.0900268554688,150.40719604492188)" style="fill:rgb(250, 192, 144);transform:matrix(1, 0, 0, 1, 925.09, 150.407);;animation:none"></path>
<path stroke-width="1" stroke="#3a454a" d="M1029.82 0L1029.82 730" style="stroke:rgb(58, 69, 74);;animation:none"></path>


<path filter="url(#f-jwk0tkw0j4)" fill="#c0f6d2" d="M0 0L-1 146 A1 1 0 0 0 1 146 Z" transform="matrix(1,0,0,1,1029.8199462890625,50)" style="fill:rgb(192, 246, 210);transform:matrix(1, 0, 0, 1, 1029.82, 50);;animation:none"></path>
<path stroke-width="1" stroke="#3a454a" d="M1134.55 0L1134.55 730" style="stroke:rgb(58, 69, 74);;animation:none"></path>


<path filter="url(#f-jwk0tkw0j4)" fill="#ffffcb" d="M0 0L-1 146 A1 1 0 0 0 1 146 Z" transform="matrix(1,0,0,1,1134.550048828125,2)" style="fill:rgb(255, 255, 203);transform:matrix(1, 0, 0, 1, 1134.55, 2);;animation:none"></path>
<path stroke-width="1" stroke="#3a454a" d="M1239.27 0L1239.27 730" style="stroke:rgb(58, 69, 74);;animation:none"></path>


<path filter="url(#f-jwk0tkw0j4)" fill="#ffffcb" d="M0 0L-1 146 A1 1 0 0 0 1 146 Z" transform="matrix(1,0,0,1,1239.27001953125,-94)" style="fill:rgb(255, 255, 203);transform:matrix(1, 0, 0, 1, 1239.27, -94);;animation:none"></path>
<g></g></g><!-- [ldio] generated by https://loading.io --></svg>