<svg xmlns="http://www.w3.org/2000/svg" xmlns:xlink="http://www.w3.org/1999/xlink" width="668" height="1040" viewBox="0 0 668 1040">
  <defs>
    <clipPath id="clip-path">
      <rect id="Rectangle_7138" data-name="Rectangle 7138" width="668" height="1040" transform="translate(0 1923)" fill="#fff" stroke="#707070" stroke-width="1"/>
    </clipPath>
  </defs>
  <g id="Group_26407" data-name="Group 26407" transform="translate(15819 19425)">
    <g id="Mask_Group_450" data-name="Mask Group 450" transform="translate(-15819 -21348)" clip-path="url(#clip-path)">
      <path id="Path_9509" data-name="Path 9509" d="M514.249,435.424c48.164-23.911,135-77.566,178.014-177.442,48.164-111.888,24.483-243.339,24.483-243.339S676.7,39.927,604.857,31c-71.846-9.038-90.608-31-90.608-31S495.487,22.08,423.64,31c-71.846,9.038-111.888-16.36-111.888-16.36s-23.682,131.451,24.483,243.339c43.016,99.875,129.849,153.531,178.014,177.442Zm-78.825,20.707c-23.911-48.164-77.566-135-177.442-178.014C146.095,229.953,14.644,253.635,14.644,253.635S39.927,293.677,31,365.523c-9.038,71.846-31,90.608-31,90.608s22.08,18.762,31,90.608c9.038,71.846-16.36,111.888-16.36,111.888s131.451,23.682,243.339-24.483c99.99-43.016,153.531-129.849,177.442-178.014Zm78.825,20.707c-48.164,23.911-135,77.566-178.014,177.442-48.164,111.888-24.483,243.339-24.483,243.339s40.042-25.283,111.888-16.36,90.608,31,90.608,31,18.762-22.08,90.608-31,111.888,16.36,111.888,16.36,23.682-131.451-24.483-243.339C649.246,554.4,562.413,500.749,514.249,476.839Zm516.766-20.707s-22.08-18.762-31-90.608c-9.038-71.846,16.36-111.888,16.36-111.888S884.92,229.953,773.032,278.118C673.157,321.134,619.5,407.967,595.591,456.131c23.911,48.164,77.566,135,177.442,178.014,111.888,48.164,243.339,24.482,243.339,24.482s-25.283-40.042-16.36-111.888,31-90.608,31-90.608Z" transform="translate(-220.837 1865.063) rotate(20)" fill="#f4f6fa" opacity="0.8"/>
    </g>
  </g>
</svg>
